Coordinates
version=1
nRows=33
nColumns=30
inDegrees=yes

Units are S.I. units (second, meters, Newtons, ...)
Angles are in degrees.

endheader
time	floatyaw	floatroll	floatpitch	floatx	floaty	floatz	pro_sup_l	deviation_l	flexion_l	cmc_flexion_l	cmc_abduction_l	mp_flexion_l	ip_flexion_l	2mcp_flexion_l	2mcp_abduction_l	2pm_flexion_l	2md_flexion_l	3mcp_flexion_l	3mcp_abduction_l	3pm_flexion_l	3md_flexion_l	4mcp_flexion_l	4mcp_abduction_l	4pm_flexion_l	4md_flexion_l	5mcp_flexion_l	5mcp_abduction_l	5pm_flexion_l	5md_flexion_l
-1.495000	-160.147433	-5.066637	-73.570646	0.080855	-0.182130	-0.016759	102.164763	4.085890	-1.050874	16.106374	5.849886	-25.314393	-41.289823	29.854566	7.217233	42.651549	28.924945	25.112220	4.181957	43.553575	28.476081	13.965433	-4.330673	51.401949	35.343037	1.802129	-8.624315	61.063711	43.017718
-1.485000	-160.147433	-5.066637	-73.570646	0.080850	-0.182126	-0.016813	102.144556	4.095413	-1.061317	16.075966	5.907057	-25.329540	-41.300857	29.873840	7.219485	42.668834	28.922020	25.110105	4.188724	43.580131	28.484221	13.984557	-4.333094	51.413418	35.349684	1.829562	-8.625405	61.051301	43.004953
-1.475000	-160.147433	-5.066637	-73.570646	0.080846	-0.182118	-0.016875	102.114487	4.100897	-1.067751	16.045093	5.962445	-25.348167	-41.311050	29.883081	7.223311	42.680509	28.917937	25.101880	4.195157	43.601468	28.492541	13.991994	-4.334858	51.427617	35.357805	1.836135	-8.628217	61.052670	43.002519
-1.465000	-160.147433	-5.066637	-73.570646	0.080841	-0.182102	-0.016944	102.087547	4.104511	-1.067380	16.015357	6.000754	-25.365925	-41.315846	29.876409	7.227753	42.684321	28.913703	25.085232	4.200022	43.613946	28.498029	13.984387	-4.335485	51.441342	35.365010	1.821753	-8.630228	61.063599	43.009438
-1.455000	-160.147433	-5.066637	-73.570646	0.080833	-0.182076	-0.017019	102.076919	4.109325	-1.059823	15.989366	6.014870	-25.379228	-41.312563	29.853071	7.230756	42.680074	28.910558	25.059014	4.202872	43.617100	28.499473	13.961770	-4.334959	51.453199	35.369981	1.792877	-8.629088	61.076827	43.021422
-1.445000	-160.147433	-5.066637	-73.570646	0.080820	-0.182038	-0.017101	102.089604	4.118078	-1.047082	15.969165	6.010572	-25.387208	-41.302209	29.819411	7.229768	42.669234	28.909035	25.024550	4.203781	43.614049	28.498222	13.927730	-4.333741	51.464116	35.373157	1.758988	-8.623258	61.084006	43.032178
-1.435000	-160.147433	-5.066637	-73.570646	0.080798	-0.181989	-0.017191	102.124270	4.132683	-1.032274	15.955210	6.002633	-25.392176	-41.289825	29.787108	7.222974	42.654500	28.908618	24.986057	4.203064	43.609959	28.497133	13.888751	-4.332678	51.476374	35.376139	1.728873	-8.612330	61.077692	43.035252
-1.425000	-160.147433	-5.066637	-73.570646	0.080764	-0.181928	-0.017291	102.174324	4.154675	-1.017899	15.946551	6.004304	-25.398181	-41.282761	29.767926	7.210644	42.639344	28.908085	24.949574	4.201261	43.609458	28.498430	13.852833	-4.332825	51.491712	35.380187	1.708501	-8.597344	61.053574	43.026084
-1.415000	-160.147433	-5.066637	-73.570646	0.080718	-0.181853	-0.017403	102.233648	4.185908	-1.004619	15.942027	6.017763	-25.408290	-41.287142	29.767508	7.195801	42.627460	28.906420	24.920591	4.199309	43.614703	28.502215	13.827581	-4.335122	51.509661	35.384947	1.700727	-8.580993	61.012759	43.003887
-1.405000	-160.147433	-5.066637	-73.570646	0.080660	-0.181758	-0.017533	102.300872	4.228665	-0.991110	15.941632	6.032851	-25.422081	-41.303999	29.781566	7.183544	42.622154	28.903871	24.901417	4.198515	43.625098	28.506825	13.818167	-4.339947	51.527037	35.388361	1.705819	-8.567222	60.963076	42.972713
-1.395000	-160.147433	-5.066637	-73.570646	0.080587	-0.181636	-0.017685	102.379268	4.284853	-0.974873	15.946905	6.035236	-25.434929	-41.327320	29.796869	7.178943	42.625660	28.902452	24.889729	4.200018	43.638424	28.510670	13.825715	-4.346682	51.538786	35.387785	1.721619	-8.559797	60.917710	42.940812
-1.385000	-160.147433	-5.066637	-73.570646	0.080497	-0.181481	-0.017864	102.472375	4.354851	-0.953487	15.959730	6.017984	-25.439848	-41.345706	29.797092	7.184428	42.638333	28.905220	24.879387	4.203895	43.652334	28.513990	13.846690	-4.353554	51.539808	35.381521	1.743295	-8.560254	60.890321	42.917769
-1.375000	-160.147433	-5.066637	-73.570646	0.080380	-0.181289	-0.018075	102.578312	4.436997	-0.925747	15.979859	5.988299	-25.431022	-41.347204	29.770994	7.198240	42.658104	28.914484	24.863641	4.208602	43.665343	28.519103	13.873856	-4.357990	51.527108	35.369842	1.763874	-8.566410	60.888255	42.910207
-1.365000	-160.147433	-5.066637	-73.570646	0.080222	-0.181054	-0.018323	102.686696	4.528367	-0.892256	16.002503	5.964825	-25.406998	-41.324724	29.718807	7.215063	42.680730	28.929924	24.839399	4.211413	43.676824	28.528729	13.898993	-4.357524	51.501355	35.354937	1.776657	-8.572771	60.907773	42.918234
-1.355000	-160.147433	-5.066637	-73.570646	0.080008	-0.180775	-0.018612	102.780560	4.626606	-0.855359	16.017631	5.967124	-25.371823	-41.279286	29.653310	7.228487	42.700807	28.947677	24.810309	4.209874	43.685781	28.543102	13.916805	-4.350982	51.466655	35.339708	1.779063	-8.573202	60.934708	42.934868
-1.345000	-160.147433	-5.066637	-73.570646	0.079727	-0.180448	-0.018941	102.842602	4.731730	-0.818739	16.012051	6.003704	-25.333849	-41.219830	29.594885	7.233810	42.712845	28.960896	24.786770	4.203400	43.688876	28.557572	13.928695	-4.339302	51.427672	35.325916	1.775825	-8.564766	60.950651	42.949121
-1.335000	-160.147433	-5.066637	-73.570646	0.079375	-0.180075	-0.019308	102.862441	4.846831	-0.787378	15.974010	6.065792	-25.302981	-41.160128	29.563078	7.229788	42.712027	28.961850	24.782522	4.193888	43.679520	28.562790	13.944701	-4.325309	51.385036	35.312772	1.779331	-8.550612	60.941229	42.951272
-1.325000	-160.147433	-5.066637	-73.570646	0.078956	-0.179658	-0.019706	102.841081	4.977346	-0.768204	15.898580	6.130931	-25.287061	-41.113919	29.568867	7.218871	42.695076	28.945181	24.809192	4.184768	43.650129	28.548584	13.982136	-4.312333	51.332033	35.297125	1.806203	-8.540063	60.902014	42.937702
-1.315000	-160.147433	-5.066637	-73.570646	0.078474	-0.179200	-0.020129	102.790546	5.129280	-0.770723	15.791141	6.174839	-25.287710	-41.089150	29.611193	7.206242	42.661593	28.911135	24.871276	4.179018	43.597518	28.510163	14.060480	-4.302448	51.255731	35.275531	1.871183	-8.545343	60.839302	42.912934
-1.305000	-160.147433	-5.066637	-73.570646	0.077927	-0.178704	-0.020576	102.729048	5.307033	-0.806104	15.666695	6.185126	-25.296667	-41.082539	29.678882	7.198134	42.615330	28.866863	24.964011	4.177404	43.528169	28.452951	14.193784	-4.295468	51.143133	35.247122	1.980984	-8.576116	60.765895	42.887864
-1.295000	-160.147433	-5.066637	-73.570646	0.077303	-0.178171	-0.021055	102.673798	5.511462	-0.883865	15.544651	6.169199	-25.295235	-41.077156	29.756285	7.199831	42.564331	28.824495	25.075087	4.178123	43.458829	28.392299	14.383423	-4.289441	50.989532	35.215365	2.131026	-8.634210	60.694447	42.874862
-1.285000	-160.147433	-5.066637	-73.570646	0.076584	-0.177604	-0.021577	102.634415	5.738892	-1.007041	15.441320	6.152187	-25.259768	-41.046412	29.828931	7.213779	42.519324	28.796517	25.188728	4.178147	43.410243	28.347194	14.614474	-4.282376	50.804369	35.187409	2.306460	-8.711264	60.631864	42.881916
-1.275000	-160.147433	-5.066637	-73.570646	0.075755	-0.177014	-0.022150	102.610041	5.981760	-1.168115	15.364325	6.166369	-25.173084	-40.965441	29.885586	7.238291	42.490735	28.790911	25.289200	4.175367	43.396719	28.331133	14.857458	-4.273944	50.610887	35.171212	2.486438	-8.791021	60.577487	42.908672
-1.265000	-160.147433	-5.066637	-73.570646	0.074822	-0.176423	-0.022770	102.592014	6.230805	-1.348099	15.312650	6.237558	-25.036569	-40.825699	29.915915	7.267324	42.485488	28.808715	25.362005	4.169936	43.418090	28.345643	15.074814	-4.265765	50.439124	35.171985	2.649150	-8.855529	60.525662	42.946429
-1.255000	-160.147433	-5.066637	-73.570646	0.073807	-0.175860	-0.023421	102.570801	6.477544	-1.520106	15.282356	6.374347	-24.874898	-40.644411	29.906937	7.291648	42.505020	28.845061	25.393978	4.163842	43.459713	28.380333	15.230090	-4.260056	50.315436	35.189852	2.775768	-8.891991	60.470590	42.982036
-1.245000	-160.147433	-5.066637	-73.570646	0.072749	-0.175350	-0.024077	102.542946	6.715374	-1.656614	15.273219	6.564206	-24.728416	-40.461553	29.842989	7.301292	42.545518	28.892612	25.374824	4.159183	43.500296	28.418865	15.297589	-4.257935	50.253308	35.219824	2.853064	-8.896462	60.409713	43.003372
-1.235000	-160.147433	-5.066637	-73.570646	0.071692	-0.174912	-0.024715	102.513914	6.938871	-1.737322	15.290670	6.777573	-24.636079	-40.324202	29.710823	7.288799	42.599956	28.945070	25.300505	4.156591	43.521992	28.446813	15.270065	-4.258915	50.248905	35.253654	2.875198	-8.872895	60.343231	43.003381
-1.225000	-160.147433	-5.066637	-73.570646	0.070675	-0.174554	-0.025315	102.496249	7.142647	-1.753889	15.341918	6.977979	-24.618164	-40.266375	29.506680	7.252480	42.660193	28.998742	25.175916	4.154882	43.517060	28.457285	15.161611	-4.261775	50.282093	35.282008	2.844671	-8.829369	60.271085	42.981047
-1.215000	-160.147433	-5.066637	-73.570646	0.069721	-0.174281	-0.025868	102.505720	7.321605	-1.709670	15.430464	7.133653	-24.667938	-40.295413	29.240439	7.198606	42.717715	29.051651	25.013906	4.151874	43.489210	28.452549	15.003643	-4.265738	50.321962	35.295825	2.771618	-8.774724	60.191364	42.940009
-1.205000	-160.147433	-5.066637	-73.570646	0.068833	-0.174098	-0.026378	102.558033	7.473109	-1.615691	15.553785	7.225780	-24.756126	-40.391758	28.934234	7.141257	42.763869	29.101602	24.830440	4.145549	43.451355	28.442099	14.834234	-4.270976	50.336217	35.287429	2.670807	-8.717182	60.102957	42.886612
-1.195000	-160.147433	-5.066637	-73.570646	0.067998	-0.174015	-0.026854	102.666453	7.599650	-1.486274	15.704988	7.250837	-24.845241	-40.520956	28.616645	7.099156	42.792141	29.145460	24.638891	4.134940	43.422439	28.438731	14.684361	-4.278387	50.304104	35.252986	2.557161	-8.664269	60.011554	42.828666
-1.185000	-160.147433	-5.066637	-73.570646	0.067193	-0.174040	-0.027307	102.839518	7.709746	-1.337433	15.875166	7.217511	-24.906195	-40.650067	28.316228	7.090235	42.803707	29.180822	24.447853	4.120696	43.424807	28.454410	14.567209	-4.289035	50.230654	35.196869	2.442631	-8.622969	59.935163	42.775077
-1.175000	-160.147433	-5.066637	-73.570646	0.066407	-0.174172	-0.027742	103.079156	7.815610	-1.188625	16.053118	7.140680	-24.928997	-40.759132	28.058284	7.126055	42.813206	29.208980	24.264882	4.105588	43.481675	28.497360	14.476533	-4.303572	50.155927	35.135912	2.337336	-8.600250	59.904938	42.735991
